<svg xmlns="http://www.w3.org/2000/svg" xmlns:xlink="http://www.w3.org/1999/xlink" contentStyleType="text/css" data-diagram-type="SEQUENCE" height="1111px" preserveAspectRatio="none" style="width:1505px;height:1111px;background:#FFFFFF;" version="1.1" viewBox="0 0 1505 1111" width="1505px" zoomAndPan="magnify"><?plantuml 1.2026.6?><defs/><g><g class="title" data-source-line="1"><text fill="#000000" font-family="Verdana" font-size="22" font-weight="700" lengthAdjust="spacing" textLength="476.3301" x="513.8025" y="37.1182">Checkout with COD Sequence Diagram</text></g><rect fill="#FFFFFF" height="773.3516" style="stroke:#000000;stroke-width:1;" width="1305.3394" x="184.5957" y="237.1499"/><rect fill="#FFFFFF" height="695.9536" style="stroke:none;stroke-width:1;" width="1305.3394" x="184.5957" y="314.5479"/><rect fill="#FFFFFF" height="181.7959" style="stroke:#000000;stroke-width:1;" width="1047.9517" x="302.5195" y="426.3145"/><rect fill="#FFFFFF" height="90.3979" style="stroke:#000000;stroke-width:1;" width="630.2153" x="312.5195" y="510.7124"/><rect fill="#FFFFFF" height="77.3979" style="stroke:#000000;stroke-width:1;" width="641.248" x="578.6836" y="681.709"/><g class="participant-lifeline" data-entity-uid="part1" data-qualified-name="Customer" data-source-line="4" id="part1-lifeline"><g><title>Customer</title><rect fill="#000000" fill-opacity="0.00000" height="896.7495" width="8" x="42.937" y="130.752"/><line style="stroke:#000000;stroke-width:1;stroke-dasharray:5,5;" x1="46" x2="46" y1="130.752" y2="1027.5015"/></g></g><g class="participant-lifeline" data-entity-uid="part2" data-qualified-name="CheckoutJSP" data-source-line="5" id="part2-lifeline"><g><title>checkout.jsp</title><rect fill="#000000" fill-opacity="0.00000" height="896.7495" width="8" x="238.0327" y="130.752"/><line style="stroke:#000000;stroke-width:1;stroke-dasharray:5,5;" x1="241.5957" x2="241.5957" y1="130.752" y2="1027.5015"/></g></g><g class="participant-lifeline" data-entity-uid="part3" data-qualified-name="CheckoutServlet" data-source-line="6" id="part3-lifeline"><g><title>CheckoutServlet</title><rect fill="#000000" fill-opacity="0.00000" height="896.7495" width="8" x="379.167" y="130.752"/><line style="stroke:#000000;stroke-width:1;stroke-dasharray:5,5;" x1="382.5195" x2="382.5195" y1="130.752" y2="1027.5015"/></g></g><g class="participant-lifeline" data-entity-uid="part4" data-qualified-name="CheckoutService" data-source-line="7" id="part4-lifeline"><g><title>CheckoutService</title><rect fill="#000000" fill-opacity="0.00000" height="896.7495" width="8" x="646.2197" y="130.752"/><line style="stroke:#000000;stroke-width:1;stroke-dasharray:5,5;" x1="649.6836" x2="649.6836" y1="130.752" y2="1027.5015"/></g></g><g class="participant-lifeline" data-entity-uid="part5" data-qualified-name="CartDAO" data-source-line="8" id="part5-lifeline"><g><title>CartDAO</title><rect fill="#000000" fill-opacity="0.00000" height="896.7495" width="8" x="933.7349" y="130.752"/><line style="stroke:#000000;stroke-width:1;stroke-dasharray:5,5;" x1="937.209" x2="937.209" y1="130.752" y2="1027.5015"/></g></g><g class="participant-lifeline" data-entity-uid="part6" data-qualified-name="ProductVariantDAO" data-source-line="9" id="part6-lifeline"><g><title>ProductVariantDAO</title><rect fill="#000000" fill-opacity="0.00000" height="896.7495" width="8" x="1047.8921" y="130.752"/><line style="stroke:#000000;stroke-width:1;stroke-dasharray:5,5;" x1="1051.2607" x2="1051.2607" y1="130.752" y2="1027.5015"/></g></g><g class="participant-lifeline" data-entity-uid="part7" data-qualified-name="OrderDAO" data-source-line="10" id="part7-lifeline"><g><title>OrderDAO</title><rect fill="#000000" fill-opacity="0.00000" height="896.7495" width="8" x="1167.2275" y="130.752"/><line style="stroke:#000000;stroke-width:1;stroke-dasharray:5,5;" x1="1170.5234" x2="1170.5234" y1="130.752" y2="1027.5015"/></g></g><g class="participant-lifeline" data-entity-uid="part8" data-qualified-name="MySQL" data-source-line="11" id="part8-lifeline"><g><title>MySQL</title><rect fill="#000000" fill-opacity="0.00000" height="896.7495" width="8" x="1309.2378" y="130.752"/><line style="stroke:#000000;stroke-width:1;stroke-dasharray:5,5;" x1="1313.0044" x2="1313.0044" y1="130.752" y2="1027.5015"/></g></g><g class="participant-lifeline" data-entity-uid="part9" data-qualified-name="SuccessJSP" data-source-line="12" id="part9-lifeline"><g><title>order-success.jsp</title><rect fill="#000000" fill-opacity="0.00000" height="896.7495" width="8" x="1411.2031" y="130.752"/><line style="stroke:#000000;stroke-width:1;stroke-dasharray:5,5;" x1="1414.4712" x2="1414.4712" y1="130.752" y2="1027.5015"/></g></g><g class="participant participant-head" data-entity-uid="part1" data-qualified-name="Customer" data-source-line="4" id="part1-head"><text fill="#000000" font-family="Verdana" font-size="14" lengthAdjust="spacing" textLength="67.874" x="10" y="127.8125">Customer</text><ellipse cx="46.937" cy="61.7373" fill="#FFFFFF" rx="8" ry="8" style="stroke:#000000;stroke-width:1;"/><path d="M46.937,69.7373 L46.937,96.7373 M33.937,77.7373 L59.937,77.7373 M46.937,96.7373 L33.937,111.7373 M46.937,96.7373 L59.937,111.7373" fill="none" style="stroke:#000000;stroke-width:1;"/></g><g class="participant participant-tail" data-entity-uid="part1" data-qualified-name="Customer" data-source-line="4" id="part1-tail"><text fill="#000000" font-family="Verdana" font-size="14" lengthAdjust="spacing" textLength="67.874" x="10" y="1040.5767">Customer</text><ellipse cx="46.937" cy="1052.5161" fill="#FFFFFF" rx="8" ry="8" style="stroke:#000000;stroke-width:1;"/><path d="M46.937,1060.5161 L46.937,1087.5161 M33.937,1068.5161 L59.937,1068.5161 M46.937,1087.5161 L33.937,1102.5161 M46.937,1087.5161 L59.937,1102.5161" fill="none" style="stroke:#000000;stroke-width:1;"/></g><g class="participant participant-head" data-entity-uid="part2" data-qualified-name="CheckoutJSP" data-source-line="5" id="part2-head"><text fill="#000000" font-family="Verdana" font-size="14" lengthAdjust="spacing" textLength="88.874" x="194.5957" y="127.8125">checkout.jsp</text><path d="M221.5327,85.7373 L221.5327,109.7373 M221.5327,97.7373 L238.5327,97.7373" fill="none" style="stroke:#000000;stroke-width:1;"/><ellipse cx="250.5327" cy="97.7373" fill="#FFFFFF" rx="12" ry="12" style="stroke:#000000;stroke-width:1;"/></g><g class="participant participant-tail" data-entity-uid="part2" data-qualified-name="CheckoutJSP" data-source-line="5" id="part2-tail"><text fill="#000000" font-family="Verdana" font-size="14" lengthAdjust="spacing" textLength="88.874" x="194.5957" y="1040.5767">checkout.jsp</text><path d="M221.5327,1047.5161 L221.5327,1071.5161 M221.5327,1059.5161 L238.5327,1059.5161" fill="none" style="stroke:#000000;stroke-width:1;"/><ellipse cx="250.5327" cy="1059.5161" fill="#FFFFFF" rx="12" ry="12" style="stroke:#000000;stroke-width:1;"/></g><g class="participant participant-head" data-entity-uid="part3" data-qualified-name="CheckoutServlet" data-source-line="6" id="part3-head"><text fill="#000000" font-family="Verdana" font-size="14" lengthAdjust="spacing" textLength="115.2949" x="322.5195" y="127.8125">CheckoutServlet</text><ellipse cx="383.167" cy="97.7373" fill="#FFFFFF" rx="12" ry="12" style="stroke:#000000;stroke-width:1;"/><polygon fill="#000000" points="379.167,85.7373,385.167,80.7373,383.167,85.7373,385.167,90.7373,379.167,85.7373" style="stroke:#000000;stroke-width:1;stroke-linejoin:miter;stroke-miterlimit:10;"/></g><g class="participant participant-tail" data-entity-uid="part3" data-qualified-name="CheckoutServlet" data-source-line="6" id="part3-tail"><text fill="#000000" font-family="Verdana" font-size="14" lengthAdjust="spacing" textLength="115.2949" x="322.5195" y="1040.5767">CheckoutServlet</text><ellipse cx="383.167" cy="1059.5161" fill="#FFFFFF" rx="12" ry="12" style="stroke:#000000;stroke-width:1;"/><polygon fill="#000000" points="379.167,1047.5161,385.167,1042.5161,383.167,1047.5161,385.167,1052.5161,379.167,1047.5161" style="stroke:#000000;stroke-width:1;stroke-linejoin:miter;stroke-miterlimit:10;"/></g><g class="participant participant-head" data-entity-uid="part4" data-qualified-name="CheckoutService" data-source-line="7" id="part4-head"><text fill="#000000" font-family="Verdana" font-size="14" lengthAdjust="spacing" textLength="117.0723" x="588.6836" y="127.8125">CheckoutService</text><ellipse cx="650.2197" cy="97.7373" fill="#FFFFFF" rx="12" ry="12" style="stroke:#000000;stroke-width:1;"/><polygon fill="#000000" points="646.2197,85.7373,652.2197,80.7373,650.2197,85.7373,652.2197,90.7373,646.2197,85.7373" style="stroke:#000000;stroke-width:1;stroke-linejoin:miter;stroke-miterlimit:10;"/></g><g class="participant participant-tail" data-entity-uid="part4" data-qualified-name="CheckoutService" data-source-line="7" id="part4-tail"><text fill="#000000" font-family="Verdana" font-size="14" lengthAdjust="spacing" textLength="117.0723" x="588.6836" y="1040.5767">CheckoutService</text><ellipse cx="650.2197" cy="1059.5161" fill="#FFFFFF" rx="12" ry="12" style="stroke:#000000;stroke-width:1;"/><polygon fill="#000000" points="646.2197,1047.5161,652.2197,1042.5161,650.2197,1047.5161,652.2197,1052.5161,646.2197,1047.5161" style="stroke:#000000;stroke-width:1;stroke-linejoin:miter;stroke-miterlimit:10;"/></g><g class="participant participant-head" data-entity-uid="part5" data-qualified-name="CartDAO" data-source-line="8" id="part5-head"><text fill="#000000" font-family="Verdana" font-size="14" lengthAdjust="spacing" textLength="61.0518" x="904.209" y="127.8125">CartDAO</text><path d="M919.7349,77.7373 C919.7349,67.7373 937.7349,67.7373 937.7349,67.7373 C937.7349,67.7373 955.7349,67.7373 955.7349,77.7373 L955.7349,103.7373 C955.7349,113.7373 937.7349,113.7373 937.7349,113.7373 C937.7349,113.7373 919.7349,113.7373 919.7349,103.7373 L919.7349,77.7373" fill="#FFFFFF" style="stroke:#000000;stroke-width:1;"/><path d="M919.7349,77.7373 C919.7349,87.7373 937.7349,87.7373 937.7349,87.7373 C937.7349,87.7373 955.7349,87.7373 955.7349,77.7373" fill="none" style="stroke:#000000;stroke-width:1;"/></g><g class="participant participant-tail" data-entity-uid="part5" data-qualified-name="CartDAO" data-source-line="8" id="part5-tail"><text fill="#000000" font-family="Verdana" font-size="14" lengthAdjust="spacing" textLength="61.0518" x="904.209" y="1040.5767">CartDAO</text><path d="M919.7349,1053.5161 C919.7349,1043.5161 937.7349,1043.5161 937.7349,1043.5161 C937.7349,1043.5161 955.7349,1043.5161 955.7349,1053.5161 L955.7349,1079.5161 C955.7349,1089.5161 937.7349,1089.5161 937.7349,1089.5161 C937.7349,1089.5161 919.7349,1089.5161 919.7349,1079.5161 L919.7349,1053.5161" fill="#FFFFFF" style="stroke:#000000;stroke-width:1;"/><path d="M919.7349,1053.5161 C919.7349,1063.5161 937.7349,1063.5161 937.7349,1063.5161 C937.7349,1063.5161 955.7349,1063.5161 955.7349,1053.5161" fill="none" style="stroke:#000000;stroke-width:1;"/></g><g class="participant participant-head" data-entity-uid="part6" data-qualified-name="ProductVariantDAO" data-source-line="9" id="part6-head"><text fill="#000000" font-family="Verdana" font-size="14" lengthAdjust="spacing" textLength="135.2627" x="981.2607" y="127.8125">ProductVariantDAO</text><path d="M1033.8921,77.7373 C1033.8921,67.7373 1051.8921,67.7373 1051.8921,67.7373 C1051.8921,67.7373 1069.8921,67.7373 1069.8921,77.7373 L1069.8921,103.7373 C1069.8921,113.7373 1051.8921,113.7373 1051.8921,113.7373 C1051.8921,113.7373 1033.8921,113.7373 1033.8921,103.7373 L1033.8921,77.7373" fill="#FFFFFF" style="stroke:#000000;stroke-width:1;"/><path d="M1033.8921,77.7373 C1033.8921,87.7373 1051.8921,87.7373 1051.8921,87.7373 C1051.8921,87.7373 1069.8921,87.7373 1069.8921,77.7373" fill="none" style="stroke:#000000;stroke-width:1;"/></g><g class="participant participant-tail" data-entity-uid="part6" data-qualified-name="ProductVariantDAO" data-source-line="9" id="part6-tail"><text fill="#000000" font-family="Verdana" font-size="14" lengthAdjust="spacing" textLength="135.2627" x="981.2607" y="1040.5767">ProductVariantDAO</text><path d="M1033.8921,1053.5161 C1033.8921,1043.5161 1051.8921,1043.5161 1051.8921,1043.5161 C1051.8921,1043.5161 1069.8921,1043.5161 1069.8921,1053.5161 L1069.8921,1079.5161 C1069.8921,1089.5161 1051.8921,1089.5161 1051.8921,1089.5161 C1051.8921,1089.5161 1033.8921,1089.5161 1033.8921,1079.5161 L1033.8921,1053.5161" fill="#FFFFFF" style="stroke:#000000;stroke-width:1;"/><path d="M1033.8921,1053.5161 C1033.8921,1063.5161 1051.8921,1063.5161 1051.8921,1063.5161 C1051.8921,1063.5161 1069.8921,1063.5161 1069.8921,1053.5161" fill="none" style="stroke:#000000;stroke-width:1;"/></g><g class="participant participant-head" data-entity-uid="part7" data-qualified-name="OrderDAO" data-source-line="10" id="part7-head"><text fill="#000000" font-family="Verdana" font-size="14" lengthAdjust="spacing" textLength="71.4082" x="1132.5234" y="127.8125">OrderDAO</text><path d="M1153.2275,77.7373 C1153.2275,67.7373 1171.2275,67.7373 1171.2275,67.7373 C1171.2275,67.7373 1189.2275,67.7373 1189.2275,77.7373 L1189.2275,103.7373 C1189.2275,113.7373 1171.2275,113.7373 1171.2275,113.7373 C1171.2275,113.7373 1153.2275,113.7373 1153.2275,103.7373 L1153.2275,77.7373" fill="#FFFFFF" style="stroke:#000000;stroke-width:1;"/><path d="M1153.2275,77.7373 C1153.2275,87.7373 1171.2275,87.7373 1171.2275,87.7373 C1171.2275,87.7373 1189.2275,87.7373 1189.2275,77.7373" fill="none" style="stroke:#000000;stroke-width:1;"/></g><g class="participant participant-tail" data-entity-uid="part7" data-qualified-name="OrderDAO" data-source-line="10" id="part7-tail"><text fill="#000000" font-family="Verdana" font-size="14" lengthAdjust="spacing" textLength="71.4082" x="1132.5234" y="1040.5767">OrderDAO</text><path d="M1153.2275,1053.5161 C1153.2275,1043.5161 1171.2275,1043.5161 1171.2275,1043.5161 C1171.2275,1043.5161 1189.2275,1043.5161 1189.2275,1053.5161 L1189.2275,1079.5161 C1189.2275,1089.5161 1171.2275,1089.5161 1171.2275,1089.5161 C1171.2275,1089.5161 1153.2275,1089.5161 1153.2275,1079.5161 L1153.2275,1053.5161" fill="#FFFFFF" style="stroke:#000000;stroke-width:1;"/><path d="M1153.2275,1053.5161 C1153.2275,1063.5161 1171.2275,1063.5161 1171.2275,1063.5161 C1171.2275,1063.5161 1189.2275,1063.5161 1189.2275,1053.5161" fill="none" style="stroke:#000000;stroke-width:1;"/></g><g class="participant participant-head" data-entity-uid="part8" data-qualified-name="MySQL" data-source-line="11" id="part8-head"><text fill="#000000" font-family="Verdana" font-size="14" lengthAdjust="spacing" textLength="48.4668" x="1286.0044" y="127.8125">MySQL</text><path d="M1295.2378,77.7373 C1295.2378,67.7373 1313.2378,67.7373 1313.2378,67.7373 C1313.2378,67.7373 1331.2378,67.7373 1331.2378,77.7373 L1331.2378,103.7373 C1331.2378,113.7373 1313.2378,113.7373 1313.2378,113.7373 C1313.2378,113.7373 1295.2378,113.7373 1295.2378,103.7373 L1295.2378,77.7373" fill="#FFFFFF" style="stroke:#000000;stroke-width:1;"/><path d="M1295.2378,77.7373 C1295.2378,87.7373 1313.2378,87.7373 1313.2378,87.7373 C1313.2378,87.7373 1331.2378,87.7373 1331.2378,77.7373" fill="none" style="stroke:#000000;stroke-width:1;"/></g><g class="participant participant-tail" data-entity-uid="part8" data-qualified-name="MySQL" data-source-line="11" id="part8-tail"><text fill="#000000" font-family="Verdana" font-size="14" lengthAdjust="spacing" textLength="48.4668" x="1286.0044" y="1040.5767">MySQL</text><path d="M1295.2378,1053.5161 C1295.2378,1043.5161 1313.2378,1043.5161 1313.2378,1043.5161 C1313.2378,1043.5161 1331.2378,1043.5161 1331.2378,1053.5161 L1331.2378,1079.5161 C1331.2378,1089.5161 1313.2378,1089.5161 1313.2378,1089.5161 C1313.2378,1089.5161 1295.2378,1089.5161 1295.2378,1079.5161 L1295.2378,1053.5161" fill="#FFFFFF" style="stroke:#000000;stroke-width:1;"/><path d="M1295.2378,1053.5161 C1295.2378,1063.5161 1313.2378,1063.5161 1313.2378,1063.5161 C1313.2378,1063.5161 1331.2378,1063.5161 1331.2378,1053.5161" fill="none" style="stroke:#000000;stroke-width:1;"/></g><g class="participant participant-head" data-entity-uid="part9" data-qualified-name="SuccessJSP" data-source-line="12" id="part9-head"><text fill="#000000" font-family="Verdana" font-size="14" lengthAdjust="spacing" textLength="123.4639" x="1350.4712" y="127.8125">order-success.jsp</text><path d="M1394.7031,85.7373 L1394.7031,109.7373 M1394.7031,97.7373 L1411.7031,97.7373" fill="none" style="stroke:#000000;stroke-width:1;"/><ellipse cx="1423.7031" cy="97.7373" fill="#FFFFFF" rx="12" ry="12" style="stroke:#000000;stroke-width:1;"/></g><g class="participant participant-tail" data-entity-uid="part9" data-qualified-name="SuccessJSP" data-source-line="12" id="part9-tail"><text fill="#000000" font-family="Verdana" font-size="14" lengthAdjust="spacing" textLength="123.4639" x="1350.4712" y="1040.5767">order-success.jsp</text><path d="M1394.7031,1047.5161 L1394.7031,1071.5161 M1394.7031,1059.5161 L1411.7031,1059.5161" fill="none" style="stroke:#000000;stroke-width:1;"/><ellipse cx="1423.7031" cy="1059.5161" fill="#FFFFFF" rx="12" ry="12" style="stroke:#000000;stroke-width:1;"/></g><g class="message" data-entity-1="part1" data-entity-2="part2" data-source-line="14" id="msg1"><polygon fill="#000000" points="230.0327,158.5513,240.0327,162.5513,230.0327,166.5513,234.0327,162.5513" style="stroke:#000000;stroke-width:1;stroke-linejoin:miter;stroke-miterlimit:10;"/><line style="stroke:#000000;stroke-width:1;" x1="46.937" x2="236.0327" y1="162.5513" y2="162.5513"/><text fill="#000000" font-family="Verdana" font-size="13" font-weight="700" lengthAdjust="spacing" textLength="9.2422" x="53.937" y="157.8218">1</text><text fill="#000000" font-family="Verdana" font-size="13" lengthAdjust="spacing" textLength="157.8535" x="67.1792" y="157.8218">Select address and COD</text></g><g class="message" data-entity-1="part2" data-entity-2="part3" data-source-line="15" id="msg2"><polygon fill="#000000" points="371.167,188.3506,381.167,192.3506,371.167,196.3506,375.167,192.3506" style="stroke:#000000;stroke-width:1;stroke-linejoin:miter;stroke-miterlimit:10;"/><line style="stroke:#000000;stroke-width:1;" x1="242.0327" x2="377.167" y1="192.3506" y2="192.3506"/><text fill="#000000" font-family="Verdana" font-size="13" font-weight="700" lengthAdjust="spacing" textLength="9.2422" x="249.0327" y="187.6211">2</text><text fill="#000000" font-family="Verdana" font-size="13" lengthAdjust="spacing" textLength="103.8921" x="262.2749" y="187.6211">POST /checkout</text></g><g class="message" data-entity-1="part3" data-entity-2="part4" data-source-line="16" id="msg3"><polygon fill="#000000" points="638.2197,218.1499,648.2197,222.1499,638.2197,226.1499,642.2197,222.1499" style="stroke:#000000;stroke-width:1;stroke-linejoin:miter;stroke-miterlimit:10;"/><line style="stroke:#000000;stroke-width:1;" x1="383.167" x2="644.2197" y1="222.1499" y2="222.1499"/><text fill="#000000" font-family="Verdana" font-size="13" font-weight="700" lengthAdjust="spacing" textLength="9.2422" x="390.167" y="217.4204">3</text><text fill="#000000" font-family="Verdana" font-size="13" lengthAdjust="spacing" textLength="93.8691" x="403.4092" y="217.4204">validate(form)</text></g><path d="M184.5957,237.1499 L248.645,237.1499 L248.645,244.9492 L238.645,254.9492 L184.5957,254.9492 L184.5957,237.1499" fill="#FFFFFF" style="stroke:#000000;stroke-width:1;"/><rect fill="none" height="773.3516" style="stroke:#000000;stroke-width:1;" width="1305.3394" x="184.5957" y="237.1499"/><text fill="#000000" font-family="Verdana" font-size="13" font-weight="700" lengthAdjust="spacing" textLength="19.0493" x="199.5957" y="251.2197">alt</text><text fill="#000000" font-family="Verdana" font-size="11" font-weight="700" lengthAdjust="spacing" textLength="145.9487" x="263.645" y="250.209">[invalid checkout form]</text><g class="message" data-entity-1="part4" data-entity-2="part3" data-source-line="18" id="msg4"><polygon fill="#000000" points="394.167,272.7485,384.167,276.7485,394.167,280.7485,390.167,276.7485" style="stroke:#000000;stroke-width:1;stroke-linejoin:miter;stroke-miterlimit:10;"/><line style="stroke:#000000;stroke-width:1;stroke-dasharray:2,2;" x1="388.167" x2="649.2197" y1="276.7485" y2="276.7485"/><text fill="#000000" font-family="Verdana" font-size="13" font-weight="700" lengthAdjust="spacing" textLength="9.2422" x="400.167" y="272.019">4</text><text fill="#000000" font-family="Verdana" font-size="13" lengthAdjust="spacing" textLength="67.0757" x="413.4092" y="272.019">fieldErrors</text></g><g class="message" data-entity-1="part3" data-entity-2="part2" data-source-line="19" id="msg5"><polygon fill="#000000" points="253.0327,302.5479,243.0327,306.5479,253.0327,310.5479,249.0327,306.5479" style="stroke:#000000;stroke-width:1;stroke-linejoin:miter;stroke-miterlimit:10;"/><line style="stroke:#000000;stroke-width:1;" x1="247.0327" x2="382.167" y1="306.5479" y2="306.5479"/><text fill="#000000" font-family="Verdana" font-size="13" font-weight="700" lengthAdjust="spacing" textLength="9.2422" x="259.0327" y="301.8184">5</text><text fill="#000000" font-family="Verdana" font-size="13" lengthAdjust="spacing" textLength="100.9595" x="272.2749" y="301.8184">forward(errors)</text></g><line style="stroke:#000000;stroke-width:1;stroke-dasharray:2,2;" x1="184.5957" x2="1489.9351" y1="315.5479" y2="315.5479"/><text fill="#000000" font-family="Verdana" font-size="11" font-weight="700" lengthAdjust="spacing" textLength="74.728" x="189.5957" y="326.6069">[valid form]</text><g class="message" data-entity-1="part3" data-entity-2="part4" data-source-line="21" id="msg6"><polygon fill="#000000" points="638.2197,347.7158,648.2197,351.7158,638.2197,355.7158,642.2197,351.7158" style="stroke:#000000;stroke-width:1;stroke-linejoin:miter;stroke-miterlimit:10;"/><line style="stroke:#000000;stroke-width:1;" x1="383.167" x2="644.2197" y1="351.7158" y2="351.7158"/><text fill="#000000" font-family="Verdana" font-size="13" font-weight="700" lengthAdjust="spacing" textLength="9.2422" x="390.167" y="346.9863">6</text><text fill="#000000" font-family="Verdana" font-size="13" lengthAdjust="spacing" textLength="100.9087" x="403.4092" y="346.9863">checkout(form)</text></g><g class="message" data-entity-1="part4" data-entity-2="part5" data-source-line="22" id="msg7"><polygon fill="#000000" points="925.7349,377.5151,935.7349,381.5151,925.7349,385.5151,929.7349,381.5151" style="stroke:#000000;stroke-width:1;stroke-linejoin:miter;stroke-miterlimit:10;"/><line style="stroke:#000000;stroke-width:1;" x1="650.2197" x2="931.7349" y1="381.5151" y2="381.5151"/><text fill="#000000" font-family="Verdana" font-size="13" font-weight="700" lengthAdjust="spacing" textLength="9.2422" x="657.2197" y="376.7856">7</text><text fill="#000000" font-family="Verdana" font-size="13" lengthAdjust="spacing" textLength="203.7661" x="670.4619" y="376.7856">findByCustomerId(customerId)</text></g><g class="message" data-entity-1="part5" data-entity-2="part8" data-source-line="23" id="msg8"><polygon fill="#000000" points="1301.2378,407.3145,1311.2378,411.3145,1301.2378,415.3145,1305.2378,411.3145" style="stroke:#000000;stroke-width:1;stroke-linejoin:miter;stroke-miterlimit:10;"/><line style="stroke:#000000;stroke-width:1;" x1="937.7349" x2="1307.2378" y1="411.3145" y2="411.3145"/><text fill="#000000" font-family="Verdana" font-size="13" font-weight="700" lengthAdjust="spacing" textLength="9.2422" x="944.7349" y="406.585">8</text><text fill="#000000" font-family="Verdana" font-size="13" lengthAdjust="spacing" textLength="178.0327" x="957.9771" y="406.585">SELECT selected cart items</text></g><path d="M302.5195,426.3145 L378.9023,426.3145 L378.9023,434.1138 L368.9023,444.1138 L302.5195,444.1138 L302.5195,426.3145" fill="#FFFFFF" style="stroke:#000000;stroke-width:1;"/><rect fill="none" height="181.7959" style="stroke:#000000;stroke-width:1;" width="1047.9517" x="302.5195" y="426.3145"/><text fill="#000000" font-family="Verdana" font-size="13" font-weight="700" lengthAdjust="spacing" textLength="31.3828" x="317.5195" y="440.3843">loop</text><text fill="#000000" font-family="Verdana" font-size="11" font-weight="700" lengthAdjust="spacing" textLength="127.5259" x="393.9023" y="439.3735">[each selected item]</text><g class="message" data-entity-1="part4" data-entity-2="part6" data-source-line="25" id="msg9"><polygon fill="#000000" points="1039.8921,461.9131,1049.8921,465.9131,1039.8921,469.9131,1043.8921,465.9131" style="stroke:#000000;stroke-width:1;stroke-linejoin:miter;stroke-miterlimit:10;"/><line style="stroke:#000000;stroke-width:1;" x1="650.2197" x2="1045.8921" y1="465.9131" y2="465.9131"/><text fill="#000000" font-family="Verdana" font-size="13" font-weight="700" lengthAdjust="spacing" textLength="9.2422" x="657.2197" y="461.1836">9</text><text fill="#000000" font-family="Verdana" font-size="13" lengthAdjust="spacing" textLength="297.6987" x="670.4619" y="461.1836">decreaseStockIfAvailable(variantId, quantity)</text></g><g class="message" data-entity-1="part6" data-entity-2="part8" data-source-line="26" id="msg10"><polygon fill="#000000" points="1301.2378,491.7124,1311.2378,495.7124,1301.2378,499.7124,1305.2378,495.7124" style="stroke:#000000;stroke-width:1;stroke-linejoin:miter;stroke-miterlimit:10;"/><line style="stroke:#000000;stroke-width:1;" x1="1051.8921" x2="1307.2378" y1="495.7124" y2="495.7124"/><text fill="#000000" font-family="Verdana" font-size="13" font-weight="700" lengthAdjust="spacing" textLength="18.4844" x="1058.8921" y="490.9829">10</text><text fill="#000000" font-family="Verdana" font-size="13" lengthAdjust="spacing" textLength="139.6865" x="1081.3765" y="490.9829">atomic stock UPDATE</text></g><path d="M312.5195,510.7124 L376.5688,510.7124 L376.5688,518.5117 L366.5688,528.5117 L312.5195,528.5117 L312.5195,510.7124" fill="#FFFFFF" style="stroke:#000000;stroke-width:1;"/><rect fill="none" height="90.3979" style="stroke:#000000;stroke-width:1;" width="630.2153" x="312.5195" y="510.7124"/><text fill="#000000" font-family="Verdana" font-size="13" font-weight="700" lengthAdjust="spacing" textLength="19.0493" x="327.5195" y="524.7822">alt</text><text fill="#000000" font-family="Verdana" font-size="11" font-weight="700" lengthAdjust="spacing" textLength="85.0137" x="391.5688" y="523.7715">[out of stock]</text><g class="message" data-entity-1="part4" data-entity-2="part4" data-source-line="28" id="msg11"><line style="stroke:#000000;stroke-width:1;" x1="650.2197" x2="692.2197" y1="550.311" y2="550.311"/><line style="stroke:#000000;stroke-width:1;" x1="692.2197" x2="692.2197" y1="550.311" y2="563.311"/><line style="stroke:#000000;stroke-width:1;" x1="651.2197" x2="692.2197" y1="563.311" y2="563.311"/><polygon fill="#000000" points="661.2197,559.311,651.2197,563.311,661.2197,567.311,657.2197,563.311" style="stroke:#000000;stroke-width:1;stroke-linejoin:miter;stroke-miterlimit:10;"/><text fill="#000000" font-family="Verdana" font-size="13" font-weight="700" lengthAdjust="spacing" textLength="18.4844" x="657.2197" y="545.5815">11</text><text fill="#000000" font-family="Verdana" font-size="13" lengthAdjust="spacing" textLength="251.0308" x="679.7041" y="545.5815">compensate(orderId, decreasedStock)</text></g><g class="message" data-entity-1="part4" data-entity-2="part3" data-source-line="29" id="msg12"><polygon fill="#000000" points="394.167,589.1104,384.167,593.1104,394.167,597.1104,390.167,593.1104" style="stroke:#000000;stroke-width:1;stroke-linejoin:miter;stroke-miterlimit:10;"/><line style="stroke:#000000;stroke-width:1;stroke-dasharray:2,2;" x1="388.167" x2="649.2197" y1="593.1104" y2="593.1104"/><text fill="#000000" font-family="Verdana" font-size="13" font-weight="700" lengthAdjust="spacing" textLength="18.4844" x="400.167" y="588.3809">12</text><text fill="#000000" font-family="Verdana" font-size="13" lengthAdjust="spacing" textLength="41.0313" x="422.6514" y="588.3809">failure</text></g><g class="message" data-entity-1="part4" data-entity-2="part7" data-source-line="32" id="msg13"><polygon fill="#000000" points="1159.2275,632.9097,1169.2275,636.9097,1159.2275,640.9097,1163.2275,636.9097" style="stroke:#000000;stroke-width:1;stroke-linejoin:miter;stroke-miterlimit:10;"/><line style="stroke:#000000;stroke-width:1;" x1="650.2197" x2="1165.2275" y1="636.9097" y2="636.9097"/><text fill="#000000" font-family="Verdana" font-size="13" font-weight="700" lengthAdjust="spacing" textLength="18.4844" x="657.2197" y="632.1802">13</text><text fill="#000000" font-family="Verdana" font-size="13" lengthAdjust="spacing" textLength="368.6211" x="679.7041" y="632.1802">insert(order status=PENDING_PAYMENT, method=COD)</text></g><g class="message" data-entity-1="part7" data-entity-2="part8" data-source-line="33" id="msg14"><polygon fill="#000000" points="1301.2378,662.709,1311.2378,666.709,1301.2378,670.709,1305.2378,666.709" style="stroke:#000000;stroke-width:1;stroke-linejoin:miter;stroke-miterlimit:10;"/><line style="stroke:#000000;stroke-width:1;" x1="1171.2275" x2="1307.2378" y1="666.709" y2="666.709"/><text fill="#000000" font-family="Verdana" font-size="13" font-weight="700" lengthAdjust="spacing" textLength="18.4844" x="1178.2275" y="661.9795">14</text><text fill="#000000" font-family="Verdana" font-size="13" lengthAdjust="spacing" textLength="95.5259" x="1200.7119" y="661.9795">INSERT orders</text></g><path d="M578.6836,681.709 L655.0664,681.709 L655.0664,689.5083 L645.0664,699.5083 L578.6836,699.5083 L578.6836,681.709" fill="#FFFFFF" style="stroke:#000000;stroke-width:1;"/><rect fill="none" height="77.3979" style="stroke:#000000;stroke-width:1;" width="641.248" x="578.6836" y="681.709"/><text fill="#000000" font-family="Verdana" font-size="13" font-weight="700" lengthAdjust="spacing" textLength="31.3828" x="593.6836" y="695.7788">loop</text><text fill="#000000" font-family="Verdana" font-size="11" font-weight="700" lengthAdjust="spacing" textLength="152.292" x="670.0664" y="694.7681">[each checked-out item]</text><g class="message" data-entity-1="part4" data-entity-2="part7" data-source-line="35" id="msg15"><polygon fill="#000000" points="1159.2275,717.3076,1169.2275,721.3076,1159.2275,725.3076,1163.2275,721.3076" style="stroke:#000000;stroke-width:1;stroke-linejoin:miter;stroke-miterlimit:10;"/><line style="stroke:#000000;stroke-width:1;" x1="650.2197" x2="1165.2275" y1="721.3076" y2="721.3076"/><text fill="#000000" font-family="Verdana" font-size="13" font-weight="700" lengthAdjust="spacing" textLength="18.4844" x="657.2197" y="716.5781">15</text><text fill="#000000" font-family="Verdana" font-size="13" lengthAdjust="spacing" textLength="230.877" x="679.7041" y="716.5781">insertOrderItem(orderId, cartItem)</text></g><g class="message" data-entity-1="part4" data-entity-2="part7" data-source-line="36" id="msg16"><polygon fill="#000000" points="1159.2275,747.1069,1169.2275,751.1069,1159.2275,755.1069,1163.2275,751.1069" style="stroke:#000000;stroke-width:1;stroke-linejoin:miter;stroke-miterlimit:10;"/><line style="stroke:#000000;stroke-width:1;" x1="650.2197" x2="1165.2275" y1="751.1069" y2="751.1069"/><text fill="#000000" font-family="Verdana" font-size="13" font-weight="700" lengthAdjust="spacing" textLength="18.4844" x="657.2197" y="746.3774">16</text><text fill="#000000" font-family="Verdana" font-size="13" lengthAdjust="spacing" textLength="227.7666" x="679.7041" y="746.3774">insertInventoryLog(..., "SALE", ...)</text></g><g class="message" data-entity-1="part4" data-entity-2="part7" data-source-line="38" id="msg17"><polygon fill="#000000" points="1159.2275,783.9063,1169.2275,787.9063,1159.2275,791.9063,1163.2275,787.9063" style="stroke:#000000;stroke-width:1;stroke-linejoin:miter;stroke-miterlimit:10;"/><line style="stroke:#000000;stroke-width:1;" x1="650.2197" x2="1165.2275" y1="787.9063" y2="787.9063"/><text fill="#000000" font-family="Verdana" font-size="13" font-weight="700" lengthAdjust="spacing" textLength="18.4844" x="657.2197" y="783.1768">17</text><text fill="#000000" font-family="Verdana" font-size="13" lengthAdjust="spacing" textLength="361.188" x="679.7041" y="783.1768">insertStatusHistory(orderId, "PENDING_PAYMENT", ...)</text></g><g class="message" data-entity-1="part4" data-entity-2="part7" data-source-line="39" id="msg18"><polygon fill="#000000" points="1159.2275,813.7056,1169.2275,817.7056,1159.2275,821.7056,1163.2275,817.7056" style="stroke:#000000;stroke-width:1;stroke-linejoin:miter;stroke-miterlimit:10;"/><line style="stroke:#000000;stroke-width:1;" x1="650.2197" x2="1165.2275" y1="817.7056" y2="817.7056"/><text fill="#000000" font-family="Verdana" font-size="13" font-weight="700" lengthAdjust="spacing" textLength="18.4844" x="657.2197" y="812.9761">18</text><text fill="#000000" font-family="Verdana" font-size="13" lengthAdjust="spacing" textLength="248.6885" x="679.7041" y="812.9761">updateStatus(orderId, "CONFIRMED")</text></g><g class="message" data-entity-1="part4" data-entity-2="part7" data-source-line="40" id="msg19"><polygon fill="#000000" points="1159.2275,843.5049,1169.2275,847.5049,1159.2275,851.5049,1163.2275,847.5049" style="stroke:#000000;stroke-width:1;stroke-linejoin:miter;stroke-miterlimit:10;"/><line style="stroke:#000000;stroke-width:1;" x1="650.2197" x2="1165.2275" y1="847.5049" y2="847.5049"/><text fill="#000000" font-family="Verdana" font-size="13" font-weight="700" lengthAdjust="spacing" textLength="18.4844" x="657.2197" y="842.7754">19</text><text fill="#000000" font-family="Verdana" font-size="13" lengthAdjust="spacing" textLength="310.4194" x="679.7041" y="842.7754">insertStatusHistory(orderId, "CONFIRMED", ...)</text></g><g class="message" data-entity-1="part4" data-entity-2="part5" data-source-line="41" id="msg20"><polygon fill="#000000" points="925.7349,873.3042,935.7349,877.3042,925.7349,881.3042,929.7349,877.3042" style="stroke:#000000;stroke-width:1;stroke-linejoin:miter;stroke-miterlimit:10;"/><line style="stroke:#000000;stroke-width:1;" x1="650.2197" x2="931.7349" y1="877.3042" y2="877.3042"/><text fill="#000000" font-family="Verdana" font-size="13" font-weight="700" lengthAdjust="spacing" textLength="18.4844" x="657.2197" y="872.5747">20</text><text fill="#000000" font-family="Verdana" font-size="13" lengthAdjust="spacing" textLength="228.2935" x="679.7041" y="872.5747">deleteCartItem(cartItemId, cartId)</text></g><g class="message" data-entity-1="part5" data-entity-2="part8" data-source-line="42" id="msg21"><polygon fill="#000000" points="1301.2378,903.1035,1311.2378,907.1035,1301.2378,911.1035,1305.2378,907.1035" style="stroke:#000000;stroke-width:1;stroke-linejoin:miter;stroke-miterlimit:10;"/><line style="stroke:#000000;stroke-width:1;" x1="937.7349" x2="1307.2378" y1="907.1035" y2="907.1035"/><text fill="#000000" font-family="Verdana" font-size="13" font-weight="700" lengthAdjust="spacing" textLength="18.4844" x="944.7349" y="902.374">21</text><text fill="#000000" font-family="Verdana" font-size="13" lengthAdjust="spacing" textLength="204.9341" x="967.2192" y="902.374">DELETE checked-out cart items</text></g><path d="M602,920.1035 L602,945.1035 L1218,945.1035 L1218,930.1035 L1208,920.1035 L602,920.1035" fill="#FFFFFF" style="stroke:#000000;stroke-width:1;"/><path d="M1208,920.1035 L1208,930.1035 L1218,930.1035 L1208,920.1035" fill="#FFFFFF" style="stroke:#000000;stroke-width:1;"/><text fill="#000000" font-family="Verdana" font-size="13" lengthAdjust="spacing" textLength="277.6528" x="766.7976" y="938.1733">COD does not create PaymentTransaction.</text><g class="message" data-entity-1="part4" data-entity-2="part3" data-source-line="46" id="msg22"><polygon fill="#000000" points="394.167,968.7021,384.167,972.7021,394.167,976.7021,390.167,972.7021" style="stroke:#000000;stroke-width:1;stroke-linejoin:miter;stroke-miterlimit:10;"/><line style="stroke:#000000;stroke-width:1;stroke-dasharray:2,2;" x1="388.167" x2="649.2197" y1="972.7021" y2="972.7021"/><text fill="#000000" font-family="Verdana" font-size="13" font-weight="700" lengthAdjust="spacing" textLength="18.4844" x="400.167" y="967.9727">22</text><text fill="#000000" font-family="Verdana" font-size="13" lengthAdjust="spacing" textLength="220.5684" x="422.6514" y="967.9727">CheckoutResult(success, orderId)</text></g><g class="message" data-entity-1="part3" data-entity-2="part9" data-source-line="47" id="msg23"><polygon fill="#000000" points="1403.2031,998.5015,1413.2031,1002.5015,1403.2031,1006.5015,1407.2031,1002.5015" style="stroke:#000000;stroke-width:1;stroke-linejoin:miter;stroke-miterlimit:10;"/><line style="stroke:#000000;stroke-width:1;" x1="383.167" x2="1409.2031" y1="1002.5015" y2="1002.5015"/><text fill="#000000" font-family="Verdana" font-size="13" font-weight="700" lengthAdjust="spacing" textLength="18.4844" x="390.167" y="997.772">23</text><text fill="#000000" font-family="Verdana" font-size="13" lengthAdjust="spacing" textLength="265.7192" x="412.6514" y="997.772">redirect /order-success?orderId=orderId</text></g><?plantuml-src fLNVRzem47xFNt7ZYKX0tv7QYK6sPMg1DMpIdYPZ7yLhObFReUA_tzb9-96cLQUzG7pd-_pTTtUsaov7c6wHF-hImRDqMvWkPf3XKucA8ymaUp2iY3wuBHO8kvn95R7IQLKMQpGHuquRc9RMwOAMQrqgmSm1Uhp67FsnknumUppaMxQCk5REwFneoz3iStITTian4ionDRF4b1atconEXgNHekJk9pEIgKlNmWWq5vQxG_RzzeoZzZk6jkGShJqIpQgrvnarYS7mvZo1CGcK8tV0X32q5vWINhVeRCzvI9tV69QBR0LNZJPHozyEeTJ7i6Uvf0omlz6cY2EMEv0g6A710U-Ae1qBmouA6ucvI8pHnhP2MWn2deJyp8peOmY88yn9n-hqZaDVow4XMkVGmVIcAQqdgCIdGwDyAlhy-1b2gtq-9DIJQf7S9jCLs50I95be1qY7XKymrte7oFZsvFSkydIoUD5FOn383LBxP4xpntGpsJEPitME_NsrAHK3U2hfGxf3771VW9oHPPIAv60z6FnOpYQh9CJuklfIwatb2yPkeLweguiTAkjx97Iq9zIG5e5r_1fQPuDGVgN1489AHCrl1vLcnCRKaXQDgywd19WhxVKocS_I-PVVoyclksI-6a21Rgl5DGsA9zG4ducJphFaVWK1vR9ueODG3Br4RzMlpIYiKmeuIUFRmrlYzsAaQe-Ahhd3hNxeZqQZ0VIooMtI6m0jud_H9ml2V9NMevqOzLfAdP3Vn2nt_bweCC_0felvv_J-BfdrulzZTG9wYyznRWNDbyDfhMw_aVae-IlJEwFfNIKN1RuOOAKTWjvJMxKE7nmlU0Xlbj1e_MxmdKynItOeg6uhmsWsk9DQZQfQ1SZtNfUDuHvjcRj-_LWCe9Ofxhu1Js_860mAQVnZSNNntdoi4Qxh_uYO_GK0?></g></svg>