<svg xmlns="http://www.w3.org/2000/svg" xmlns:xlink="http://www.w3.org/1999/xlink" contentStyleType="text/css" data-diagram-type="CLASS" height="829px" preserveAspectRatio="none" style="width:1614px;height:829px;background:#FFFFFF;" version="1.1" viewBox="0 0 1614 829" width="1614px" zoomAndPan="magnify"><?plantuml 1.2026.6?><defs/><g><g class="title" data-source-line="1"><text fill="#000000" font-family="Verdana" font-size="22" font-weight="700" lengthAdjust="spacing" textLength="411.1143" x="600.8379" y="37.1182">Cart and Checkout Class Diagram</text></g><!--class CartServlet--><g class="entity" data-qualified-name="CartServlet" data-source-line="7" id="ent0001"><rect fill="#FFFFFF" height="70.0293" rx="2.5" ry="2.5" style="stroke:#000000;stroke-width:1;" width="250.1504" x="351" y="59.7373"/><ellipse cx="432.5537" cy="73.7373" fill="#FFFFFF" rx="9" ry="9" style="stroke:#000000;stroke-width:1;"/><path d="M435.3193,69.6123 Q435.4756,69.3936 435.6631,69.2842 Q435.8506,69.1748 436.0693,69.1748 Q436.4443,69.1748 436.6787,69.4404 Q436.9131,69.6904 436.9131,70.2998 L436.9131,71.7529 Q436.9131,72.3623 436.6787,72.6279 Q436.4443,72.8936 436.0693,72.8936 Q435.7256,72.8936 435.5225,72.6904 Q435.3193,72.5029 435.21,71.9873 Q435.1631,71.6279 434.9756,71.4404 Q434.6475,71.0654 434.0381,70.8467 Q433.4287,70.6279 432.8037,70.6279 Q432.0381,70.6279 431.3975,70.9561 Q430.7725,71.2842 430.2725,72.0342 Q429.7881,72.7842 429.7881,73.8154 L429.7881,74.9092 Q429.7881,76.1436 430.6787,76.9717 Q431.5693,77.7842 433.1631,77.7842 Q434.1006,77.7842 434.7568,77.5342 Q435.1475,77.3779 435.5693,76.9404 Q435.835,76.6748 435.9756,76.5967 Q436.1318,76.5186 436.335,76.5186 Q436.6631,76.5186 436.9131,76.7842 Q437.1787,77.0342 437.1787,77.3779 Q437.1787,77.7217 436.835,78.1279 Q436.335,78.7061 435.5381,79.0342 Q434.46,79.4873 433.1631,79.4873 Q431.6475,79.4873 430.4443,78.8623 Q429.46,78.3623 428.7725,77.2998 Q428.085,76.2217 428.085,74.9404 L428.085,73.7842 Q428.085,72.4561 428.6943,71.3154 Q429.3193,70.1592 430.4131,69.5498 Q431.5068,68.9248 432.7412,68.9248 Q433.4756,68.9248 434.1162,69.0967 Q434.7725,69.2529 435.3193,69.6123 Z " fill="#000000"/><text fill="#000000" font-family="Verdana" font-size="14" lengthAdjust="spacing" textLength="79.543" x="450.0537" y="79.3052">CartServlet</text><line style="stroke:#000000;stroke-width:1;" x1="352" x2="600.1504" y1="87.7373" y2="87.7373"/><text fill="#000000" font-family="Verdana" font-size="14" lengthAdjust="spacing" textLength="233.1123" x="357" y="105.8125">#doGet(request, response): void</text><text fill="#000000" font-family="Verdana" font-size="14" lengthAdjust="spacing" textLength="238.1504" x="357" y="122.8271">#doPost(request, response): void</text></g><!--class CheckoutServlet--><g class="entity" data-qualified-name="CheckoutServlet" data-source-line="11" id="ent0002"><rect fill="#FFFFFF" height="70.0293" rx="2.5" ry="2.5" style="stroke:#000000;stroke-width:1;" width="250.1504" x="706" y="59.7373"/><ellipse cx="769.6777" cy="73.7373" fill="#FFFFFF" rx="9" ry="9" style="stroke:#000000;stroke-width:1;"/><path d="M772.4434,69.6123 Q772.5996,69.3936 772.7871,69.2842 Q772.9746,69.1748 773.1934,69.1748 Q773.5684,69.1748 773.8027,69.4404 Q774.0371,69.6904 774.0371,70.2998 L774.0371,71.7529 Q774.0371,72.3623 773.8027,72.6279 Q773.5684,72.8936 773.1934,72.8936 Q772.8496,72.8936 772.6465,72.6904 Q772.4434,72.5029 772.334,71.9873 Q772.2871,71.6279 772.0996,71.4404 Q771.7715,71.0654 771.1621,70.8467 Q770.5527,70.6279 769.9277,70.6279 Q769.1621,70.6279 768.5215,70.9561 Q767.8965,71.2842 767.3965,72.0342 Q766.9121,72.7842 766.9121,73.8154 L766.9121,74.9092 Q766.9121,76.1436 767.8027,76.9717 Q768.6934,77.7842 770.2871,77.7842 Q771.2246,77.7842 771.8809,77.5342 Q772.2715,77.3779 772.6934,76.9404 Q772.959,76.6748 773.0996,76.5967 Q773.2559,76.5186 773.459,76.5186 Q773.7871,76.5186 774.0371,76.7842 Q774.3027,77.0342 774.3027,77.3779 Q774.3027,77.7217 773.959,78.1279 Q773.459,78.7061 772.6621,79.0342 Q771.584,79.4873 770.2871,79.4873 Q768.7715,79.4873 767.5684,78.8623 Q766.584,78.3623 765.8965,77.2998 Q765.209,76.2217 765.209,74.9404 L765.209,73.7842 Q765.209,72.4561 765.8184,71.3154 Q766.4434,70.1592 767.5371,69.5498 Q768.6309,68.9248 769.8652,68.9248 Q770.5996,68.9248 771.2402,69.0967 Q771.8965,69.2529 772.4434,69.6123 Z " fill="#000000"/><text fill="#000000" font-family="Verdana" font-size="14" lengthAdjust="spacing" textLength="115.2949" x="787.1777" y="79.3052">CheckoutServlet</text><line style="stroke:#000000;stroke-width:1;" x1="707" x2="955.1504" y1="87.7373" y2="87.7373"/><text fill="#000000" font-family="Verdana" font-size="14" lengthAdjust="spacing" textLength="233.1123" x="712" y="105.8125">#doGet(request, response): void</text><text fill="#000000" font-family="Verdana" font-size="14" lengthAdjust="spacing" textLength="238.1504" x="712" y="122.8271">#doPost(request, response): void</text></g><!--class CartService--><g class="entity" data-qualified-name="CartService" data-source-line="15" id="ent0003"><rect fill="#FFFFFF" height="138.0879" rx="2.5" ry="2.5" style="stroke:#000000;stroke-width:1;" width="453.4854" x="249.5" y="189.7373"/><ellipse cx="431.8325" cy="203.7373" fill="#FFFFFF" rx="9" ry="9" style="stroke:#000000;stroke-width:1;"/><path d="M434.5981,199.6123 Q434.7544,199.3936 434.9419,199.2842 Q435.1294,199.1748 435.3481,199.1748 Q435.7231,199.1748 435.9575,199.4404 Q436.1919,199.6904 436.1919,200.2998 L436.1919,201.7529 Q436.1919,202.3623 435.9575,202.6279 Q435.7231,202.8936 435.3481,202.8936 Q435.0044,202.8936 434.8013,202.6904 Q434.5981,202.5029 434.4888,201.9873 Q434.4419,201.6279 434.2544,201.4404 Q433.9263,201.0654 433.3169,200.8467 Q432.7075,200.6279 432.0825,200.6279 Q431.3169,200.6279 430.6763,200.9561 Q430.0513,201.2842 429.5513,202.0342 Q429.0669,202.7842 429.0669,203.8154 L429.0669,204.9092 Q429.0669,206.1436 429.9575,206.9717 Q430.8481,207.7842 432.4419,207.7842 Q433.3794,207.7842 434.0356,207.5342 Q434.4263,207.3779 434.8481,206.9404 Q435.1138,206.6748 435.2544,206.5967 Q435.4106,206.5186 435.6138,206.5186 Q435.9419,206.5186 436.1919,206.7842 Q436.4575,207.0342 436.4575,207.3779 Q436.4575,207.7217 436.1138,208.1279 Q435.6138,208.7061 434.8169,209.0342 Q433.7388,209.4873 432.4419,209.4873 Q430.9263,209.4873 429.7231,208.8623 Q428.7388,208.3623 428.0513,207.2998 Q427.3638,206.2217 427.3638,204.9404 L427.3638,203.7842 Q427.3638,202.4561 427.9731,201.3154 Q428.5981,200.1592 429.6919,199.5498 Q430.7856,198.9248 432.02,198.9248 Q432.7544,198.9248 433.395,199.0967 Q434.0513,199.2529 434.5981,199.6123 Z " fill="#000000"/><text fill="#000000" font-family="Verdana" font-size="14" lengthAdjust="spacing" textLength="81.3203" x="449.3325" y="209.3052">CartService</text><line style="stroke:#000000;stroke-width:1;" x1="250.5" x2="701.9854" y1="217.7373" y2="217.7373"/><text fill="#000000" font-family="Verdana" font-size="14" lengthAdjust="spacing" textLength="441.4854" x="255.5" y="235.8125">+addToCart(customerId, variantId, quantity, addonId): Result</text><text fill="#000000" font-family="Verdana" font-size="14" lengthAdjust="spacing" textLength="421.1348" x="255.5" y="252.8271">+updateQuantity(customerId, cartItemId, quantity): Result</text><text fill="#000000" font-family="Verdana" font-size="14" lengthAdjust="spacing" textLength="330.6543" x="255.5" y="269.8418">+removeItem(customerId, cartItemId): Result</text><text fill="#000000" font-family="Verdana" font-size="14" lengthAdjust="spacing" textLength="318.7734" x="255.5" y="286.8564">+getCartItems(customerId): List&lt;CartItem&gt;</text><text fill="#000000" font-family="Verdana" font-size="14" lengthAdjust="spacing" textLength="260.8047" x="255.5" y="303.8711">+getCartItemCount(customerId): int</text><text fill="#000000" font-family="Verdana" font-size="14" lengthAdjust="spacing" textLength="388.4932" x="255.5" y="320.8857">+filterBySelection(items, selectedIds): List&lt;CartItem&gt;</text></g><!--class CheckoutService--><g class="entity" data-qualified-name="CheckoutService" data-source-line="23" id="ent0004"><rect fill="#FFFFFF" height="104.0586" rx="2.5" ry="2.5" style="stroke:#000000;stroke-width:1;" width="329.3242" x="737.5" y="206.7373"/><ellipse cx="839.876" cy="220.7373" fill="#FFFFFF" rx="9" ry="9" style="stroke:#000000;stroke-width:1;"/><path d="M842.6416,216.6123 Q842.7979,216.3936 842.9854,216.2842 Q843.1729,216.1748 843.3916,216.1748 Q843.7666,216.1748 844.001,216.4404 Q844.2354,216.6904 844.2354,217.2998 L844.2354,218.7529 Q844.2354,219.3623 844.001,219.6279 Q843.7666,219.8936 843.3916,219.8936 Q843.0479,219.8936 842.8447,219.6904 Q842.6416,219.5029 842.5322,218.9873 Q842.4854,218.6279 842.2979,218.4404 Q841.9697,218.0654 841.3604,217.8467 Q840.751,217.6279 840.126,217.6279 Q839.3604,217.6279 838.7197,217.9561 Q838.0947,218.2842 837.5947,219.0342 Q837.1104,219.7842 837.1104,220.8154 L837.1104,221.9092 Q837.1104,223.1436 838.001,223.9717 Q838.8916,224.7842 840.4854,224.7842 Q841.4229,224.7842 842.0791,224.5342 Q842.4697,224.3779 842.8916,223.9404 Q843.1572,223.6748 843.2979,223.5967 Q843.4541,223.5186 843.6572,223.5186 Q843.9854,223.5186 844.2354,223.7842 Q844.501,224.0342 844.501,224.3779 Q844.501,224.7217 844.1572,225.1279 Q843.6572,225.7061 842.8604,226.0342 Q841.7822,226.4873 840.4854,226.4873 Q838.9697,226.4873 837.7666,225.8623 Q836.7822,225.3623 836.0947,224.2998 Q835.4072,223.2217 835.4072,221.9404 L835.4072,220.7842 Q835.4072,219.4561 836.0166,218.3154 Q836.6416,217.1592 837.7354,216.5498 Q838.8291,215.9248 840.0635,215.9248 Q840.7979,215.9248 841.4385,216.0967 Q842.0947,216.2529 842.6416,216.6123 Z " fill="#000000"/><text fill="#000000" font-family="Verdana" font-size="14" lengthAdjust="spacing" textLength="117.0723" x="857.376" y="226.3052">CheckoutService</text><line style="stroke:#000000;stroke-width:1;" x1="738.5" x2="1065.8242" y1="234.7373" y2="234.7373"/><text fill="#000000" font-family="Verdana" font-size="14" lengthAdjust="spacing" textLength="265.7334" x="743.5" y="252.8125">+validate(form): Map&lt;String,String&gt;</text><text fill="#000000" font-family="Verdana" font-size="14" lengthAdjust="spacing" textLength="240.4199" x="743.5" y="269.8271">+checkout(form): CheckoutResult</text><text fill="#000000" font-family="Verdana" font-size="14" lengthAdjust="spacing" textLength="317.3242" x="743.5" y="286.8418">-compensate(orderId, decreasedStock): void</text><text fill="#000000" font-family="Verdana" font-size="14" lengthAdjust="spacing" textLength="260.5381" x="743.5" y="303.8564">-buildQrUrl(amount, content): String</text></g><!--class CartDAO--><g class="entity" data-qualified-name="CartDAO" data-source-line="29" id="ent0005"><rect fill="#FFFFFF" height="138.0879" rx="2.5" ry="2.5" style="stroke:#000000;stroke-width:1;" width="436.1426" x="12" y="387.7373"/><ellipse cx="195.7954" cy="401.7373" fill="#FFFFFF" rx="9" ry="9" style="stroke:#000000;stroke-width:1;"/><path d="M198.561,397.6123 Q198.7173,397.3936 198.9048,397.2842 Q199.0923,397.1748 199.311,397.1748 Q199.686,397.1748 199.9204,397.4404 Q200.1548,397.6904 200.1548,398.2998 L200.1548,399.7529 Q200.1548,400.3623 199.9204,400.6279 Q199.686,400.8936 199.311,400.8936 Q198.9673,400.8936 198.7642,400.6904 Q198.561,400.5029 198.4517,399.9873 Q198.4048,399.6279 198.2173,399.4404 Q197.8892,399.0654 197.2798,398.8467 Q196.6704,398.6279 196.0454,398.6279 Q195.2798,398.6279 194.6392,398.9561 Q194.0142,399.2842 193.5142,400.0342 Q193.0298,400.7842 193.0298,401.8154 L193.0298,402.9092 Q193.0298,404.1436 193.9204,404.9717 Q194.811,405.7842 196.4048,405.7842 Q197.3423,405.7842 197.9985,405.5342 Q198.3892,405.3779 198.811,404.9404 Q199.0767,404.6748 199.2173,404.5967 Q199.3735,404.5186 199.5767,404.5186 Q199.9048,404.5186 200.1548,404.7842 Q200.4204,405.0342 200.4204,405.3779 Q200.4204,405.7217 200.0767,406.1279 Q199.5767,406.7061 198.7798,407.0342 Q197.7017,407.4873 196.4048,407.4873 Q194.8892,407.4873 193.686,406.8623 Q192.7017,406.3623 192.0142,405.2998 Q191.3267,404.2217 191.3267,402.9404 L191.3267,401.7842 Q191.3267,400.4561 191.936,399.3154 Q192.561,398.1592 193.6548,397.5498 Q194.7485,396.9248 195.9829,396.9248 Q196.7173,396.9248 197.3579,397.0967 Q198.0142,397.2529 198.561,397.6123 Z " fill="#000000"/><text fill="#000000" font-family="Verdana" font-size="14" lengthAdjust="spacing" textLength="61.0518" x="213.2954" y="407.3052">CartDAO</text><line style="stroke:#000000;stroke-width:1;" x1="13" x2="447.1426" y1="415.7373" y2="415.7373"/><text fill="#000000" font-family="Verdana" font-size="14" lengthAdjust="spacing" textLength="263.8945" x="18" y="433.8125">+getOrCreateCartId(customerId): int</text><text fill="#000000" font-family="Verdana" font-size="14" lengthAdjust="spacing" textLength="419.7334" x="18" y="450.8271">+findCartIdByCustomerId(customerId): Optional&lt;Integer&gt;</text><text fill="#000000" font-family="Verdana" font-size="14" lengthAdjust="spacing" textLength="424.1426" x="18" y="467.8418">+upsertCartItem(cartId, variantId, quantity, addonId): void</text><text fill="#000000" font-family="Verdana" font-size="14" lengthAdjust="spacing" textLength="394.5156" x="18" y="484.8564">+updateQuantity(cartItemId, cartId, quantity): boolean</text><text fill="#000000" font-family="Verdana" font-size="14" lengthAdjust="spacing" textLength="323.7568" x="18" y="501.8711">+deleteCartItem(cartItemId, cartId): boolean</text><text fill="#000000" font-family="Verdana" font-size="14" lengthAdjust="spacing" textLength="352.5771" x="18" y="518.8857">+findByCustomerId(customerId): List&lt;CartItem&gt;</text></g><!--class ProductVariantDAO--><g class="entity" data-qualified-name="ProductVariantDAO" data-source-line="37" id="ent0006"><rect fill="#FFFFFF" height="87.0439" rx="2.5" ry="2.5" style="stroke:#000000;stroke-width:1;" width="410.501" x="483.5" y="413.2373"/><ellipse cx="617.3691" cy="427.2373" fill="#FFFFFF" rx="9" ry="9" style="stroke:#000000;stroke-width:1;"/><path d="M620.1348,423.1123 Q620.291,422.8936 620.4785,422.7842 Q620.666,422.6748 620.8848,422.6748 Q621.2598,422.6748 621.4941,422.9404 Q621.7285,423.1904 621.7285,423.7998 L621.7285,425.2529 Q621.7285,425.8623 621.4941,426.1279 Q621.2598,426.3936 620.8848,426.3936 Q620.541,426.3936 620.3379,426.1904 Q620.1348,426.0029 620.0254,425.4873 Q619.9785,425.1279 619.791,424.9404 Q619.4629,424.5654 618.8535,424.3467 Q618.2441,424.1279 617.6191,424.1279 Q616.8535,424.1279 616.2129,424.4561 Q615.5879,424.7842 615.0879,425.5342 Q614.6035,426.2842 614.6035,427.3154 L614.6035,428.4092 Q614.6035,429.6436 615.4941,430.4717 Q616.3848,431.2842 617.9785,431.2842 Q618.916,431.2842 619.5723,431.0342 Q619.9629,430.8779 620.3848,430.4404 Q620.6504,430.1748 620.791,430.0967 Q620.9473,430.0186 621.1504,430.0186 Q621.4785,430.0186 621.7285,430.2842 Q621.9941,430.5342 621.9941,430.8779 Q621.9941,431.2217 621.6504,431.6279 Q621.1504,432.2061 620.3535,432.5342 Q619.2754,432.9873 617.9785,432.9873 Q616.4629,432.9873 615.2598,432.3623 Q614.2754,431.8623 613.5879,430.7998 Q612.9004,429.7217 612.9004,428.4404 L612.9004,427.2842 Q612.9004,425.9561 613.5098,424.8154 Q614.1348,423.6592 615.2285,423.0498 Q616.3223,422.4248 617.5566,422.4248 Q618.291,422.4248 618.9316,422.5967 Q619.5879,422.7529 620.1348,423.1123 Z " fill="#000000"/><text fill="#000000" font-family="Verdana" font-size="14" lengthAdjust="spacing" textLength="135.2627" x="634.8691" y="432.8052">ProductVariantDAO</text><line style="stroke:#000000;stroke-width:1;" x1="484.5" x2="893.001" y1="441.2373" y2="441.2373"/><text fill="#000000" font-family="Verdana" font-size="14" lengthAdjust="spacing" textLength="343.7109" x="489.5" y="459.3125">+findById(variantId): Optional&lt;ProductVariant&gt;</text><text fill="#000000" font-family="Verdana" font-size="14" lengthAdjust="spacing" textLength="398.501" x="489.5" y="476.3271">+decreaseStockIfAvailable(variantId, quantity): boolean</text><text fill="#000000" font-family="Verdana" font-size="14" lengthAdjust="spacing" textLength="294.2461" x="489.5" y="493.3418">+increaseStock(variantId, quantity): void</text></g><!--class OrderDAO--><g class="entity" data-qualified-name="OrderDAO" data-source-line="42" id="ent0007"><rect fill="#FFFFFF" height="121.0732" rx="2.5" ry="2.5" style="stroke:#000000;stroke-width:1;" width="445.0771" x="929.5" y="396.2373"/><ellipse cx="1112.5845" cy="410.2373" fill="#FFFFFF" rx="9" ry="9" style="stroke:#000000;stroke-width:1;"/><path d="M1115.3501,406.1123 Q1115.5063,405.8936 1115.6938,405.7842 Q1115.8813,405.6748 1116.1001,405.6748 Q1116.4751,405.6748 1116.7095,405.9404 Q1116.9438,406.1904 1116.9438,406.7998 L1116.9438,408.2529 Q1116.9438,408.8623 1116.7095,409.1279 Q1116.4751,409.3936 1116.1001,409.3936 Q1115.7563,409.3936 1115.5532,409.1904 Q1115.3501,409.0029 1115.2407,408.4873 Q1115.1938,408.1279 1115.0063,407.9404 Q1114.6782,407.5654 1114.0688,407.3467 Q1113.4595,407.1279 1112.8345,407.1279 Q1112.0688,407.1279 1111.4282,407.4561 Q1110.8032,407.7842 1110.3032,408.5342 Q1109.8188,409.2842 1109.8188,410.3154 L1109.8188,411.4092 Q1109.8188,412.6436 1110.7095,413.4717 Q1111.6001,414.2842 1113.1938,414.2842 Q1114.1313,414.2842 1114.7876,414.0342 Q1115.1782,413.8779 1115.6001,413.4404 Q1115.8657,413.1748 1116.0063,413.0967 Q1116.1626,413.0186 1116.3657,413.0186 Q1116.6938,413.0186 1116.9438,413.2842 Q1117.2095,413.5342 1117.2095,413.8779 Q1117.2095,414.2217 1116.8657,414.6279 Q1116.3657,415.2061 1115.5688,415.5342 Q1114.4907,415.9873 1113.1938,415.9873 Q1111.6782,415.9873 1110.4751,415.3623 Q1109.4907,414.8623 1108.8032,413.7998 Q1108.1157,412.7217 1108.1157,411.4404 L1108.1157,410.2842 Q1108.1157,408.9561 1108.7251,407.8154 Q1109.3501,406.6592 1110.4438,406.0498 Q1111.5376,405.4248 1112.772,405.4248 Q1113.5063,405.4248 1114.147,405.5967 Q1114.8032,405.7529 1115.3501,406.1123 Z " fill="#000000"/><text fill="#000000" font-family="Verdana" font-size="14" lengthAdjust="spacing" textLength="71.4082" x="1130.0845" y="415.8052">OrderDAO</text><line style="stroke:#000000;stroke-width:1;" x1="930.5" x2="1373.5771" y1="424.2373" y2="424.2373"/><text fill="#000000" font-family="Verdana" font-size="14" lengthAdjust="spacing" textLength="131.0039" x="935.5" y="442.3125">+insert(order): int</text><text fill="#000000" font-family="Verdana" font-size="14" lengthAdjust="spacing" textLength="289.5908" x="935.5" y="459.3271">+insertOrderItem(orderId, cartItem): int</text><text fill="#000000" font-family="Verdana" font-size="14" lengthAdjust="spacing" textLength="213.4248" x="935.5" y="476.3418">+insertInventoryLog(...): void</text><text fill="#000000" font-family="Verdana" font-size="14" lengthAdjust="spacing" textLength="433.0771" x="935.5" y="493.3564">+insertStatusHistory(orderId, status, changedBy, note): void</text><text fill="#000000" font-family="Verdana" font-size="14" lengthAdjust="spacing" textLength="289.3789" x="935.5" y="510.3711">+updateStatus(orderId, status): boolean</text></g><!--class PaymentDAO--><g class="entity" data-qualified-name="PaymentDAO" data-source-line="49" id="ent0008"><rect fill="#FFFFFF" height="53.0146" rx="2.5" ry="2.5" style="stroke:#000000;stroke-width:1;" width="357.29" x="1242.5" y="585.7373"/><ellipse cx="1370.9722" cy="599.7373" fill="#FFFFFF" rx="9" ry="9" style="stroke:#000000;stroke-width:1;"/><path d="M1373.7378,595.6123 Q1373.894,595.3936 1374.0815,595.2842 Q1374.269,595.1748 1374.4878,595.1748 Q1374.8628,595.1748 1375.0972,595.4404 Q1375.3315,595.6904 1375.3315,596.2998 L1375.3315,597.7529 Q1375.3315,598.3623 1375.0972,598.6279 Q1374.8628,598.8936 1374.4878,598.8936 Q1374.144,598.8936 1373.9409,598.6904 Q1373.7378,598.5029 1373.6284,597.9873 Q1373.5815,597.6279 1373.394,597.4404 Q1373.0659,597.0654 1372.4565,596.8467 Q1371.8472,596.6279 1371.2222,596.6279 Q1370.4565,596.6279 1369.8159,596.9561 Q1369.1909,597.2842 1368.6909,598.0342 Q1368.2065,598.7842 1368.2065,599.8154 L1368.2065,600.9092 Q1368.2065,602.1436 1369.0972,602.9717 Q1369.9878,603.7842 1371.5815,603.7842 Q1372.519,603.7842 1373.1753,603.5342 Q1373.5659,603.3779 1373.9878,602.9404 Q1374.2534,602.6748 1374.394,602.5967 Q1374.5503,602.5186 1374.7534,602.5186 Q1375.0815,602.5186 1375.3315,602.7842 Q1375.5972,603.0342 1375.5972,603.3779 Q1375.5972,603.7217 1375.2534,604.1279 Q1374.7534,604.7061 1373.9565,605.0342 Q1372.8784,605.4873 1371.5815,605.4873 Q1370.0659,605.4873 1368.8628,604.8623 Q1367.8784,604.3623 1367.1909,603.2998 Q1366.5034,602.2217 1366.5034,600.9404 L1366.5034,599.7842 Q1366.5034,598.4561 1367.1128,597.3154 Q1367.7378,596.1592 1368.8315,595.5498 Q1369.9253,594.9248 1371.1597,594.9248 Q1371.894,594.9248 1372.5347,595.0967 Q1373.1909,595.2529 1373.7378,595.6123 Z " fill="#000000"/><text fill="#000000" font-family="Verdana" font-size="14" lengthAdjust="spacing" textLength="92.8457" x="1388.4722" y="605.3052">PaymentDAO</text><line style="stroke:#000000;stroke-width:1;" x1="1243.5" x2="1598.79" y1="613.7373" y2="613.7373"/><text fill="#000000" font-family="Verdana" font-size="14" lengthAdjust="spacing" textLength="345.29" x="1248.5" y="631.8125">+insertPending(orderId, amount, qrCodeUrl): int</text></g><!--class Cart--><g class="entity" data-qualified-name="Cart" data-source-line="52" id="ent0009"><rect fill="#FFFFFF" height="28" rx="2.5" ry="2.5" style="stroke:#000000;stroke-width:1;" width="57.6748" x="201" y="598.2373"/><ellipse cx="214" cy="612.2373" fill="#FFFFFF" rx="9" ry="9" style="stroke:#000000;stroke-width:1;"/><path d="M216.7656,608.1123 Q216.9219,607.8936 217.1094,607.7842 Q217.2969,607.6748 217.5156,607.6748 Q217.8906,607.6748 218.125,607.9404 Q218.3594,608.1904 218.3594,608.7998 L218.3594,610.2529 Q218.3594,610.8623 218.125,611.1279 Q217.8906,611.3936 217.5156,611.3936 Q217.1719,611.3936 216.9688,611.1904 Q216.7656,611.0029 216.6563,610.4873 Q216.6094,610.1279 216.4219,609.9404 Q216.0938,609.5654 215.4844,609.3467 Q214.875,609.1279 214.25,609.1279 Q213.4844,609.1279 212.8438,609.4561 Q212.2188,609.7842 211.7188,610.5342 Q211.2344,611.2842 211.2344,612.3154 L211.2344,613.4092 Q211.2344,614.6436 212.125,615.4717 Q213.0156,616.2842 214.6094,616.2842 Q215.5469,616.2842 216.2031,616.0342 Q216.5938,615.8779 217.0156,615.4404 Q217.2813,615.1748 217.4219,615.0967 Q217.5781,615.0186 217.7813,615.0186 Q218.1094,615.0186 218.3594,615.2842 Q218.625,615.5342 218.625,615.8779 Q218.625,616.2217 218.2813,616.6279 Q217.7813,617.2061 216.9844,617.5342 Q215.9063,617.9873 214.6094,617.9873 Q213.0938,617.9873 211.8906,617.3623 Q210.9063,616.8623 210.2188,615.7998 Q209.5313,614.7217 209.5313,613.4404 L209.5313,612.2842 Q209.5313,610.9561 210.1406,609.8154 Q210.7656,608.6592 211.8594,608.0498 Q212.9531,607.4248 214.1875,607.4248 Q214.9219,607.4248 215.5625,607.5967 Q216.2188,607.7529 216.7656,608.1123 Z " fill="#000000"/><text fill="#000000" font-family="Verdana" font-size="14" lengthAdjust="spacing" textLength="29.6748" x="226" y="617.8052">Cart</text></g><!--class CartItem--><g class="entity" data-qualified-name="CartItem" data-source-line="53" id="ent0010"><rect fill="#FFFFFF" height="28" rx="2.5" ry="2.5" style="stroke:#000000;stroke-width:1;" width="91.041" x="184.5" y="698.7373"/><ellipse cx="197.5" cy="712.7373" fill="#FFFFFF" rx="9" ry="9" style="stroke:#000000;stroke-width:1;"/><path d="M200.2656,708.6123 Q200.4219,708.3936 200.6094,708.2842 Q200.7969,708.1748 201.0156,708.1748 Q201.3906,708.1748 201.625,708.4404 Q201.8594,708.6904 201.8594,709.2998 L201.8594,710.7529 Q201.8594,711.3623 201.625,711.6279 Q201.3906,711.8936 201.0156,711.8936 Q200.6719,711.8936 200.4688,711.6904 Q200.2656,711.5029 200.1563,710.9873 Q200.1094,710.6279 199.9219,710.4404 Q199.5938,710.0654 198.9844,709.8467 Q198.375,709.6279 197.75,709.6279 Q196.9844,709.6279 196.3438,709.9561 Q195.7188,710.2842 195.2188,711.0342 Q194.7344,711.7842 194.7344,712.8154 L194.7344,713.9092 Q194.7344,715.1436 195.625,715.9717 Q196.5156,716.7842 198.1094,716.7842 Q199.0469,716.7842 199.7031,716.5342 Q200.0938,716.3779 200.5156,715.9404 Q200.7813,715.6748 200.9219,715.5967 Q201.0781,715.5186 201.2813,715.5186 Q201.6094,715.5186 201.8594,715.7842 Q202.125,716.0342 202.125,716.3779 Q202.125,716.7217 201.7813,717.1279 Q201.2813,717.7061 200.4844,718.0342 Q199.4063,718.4873 198.1094,718.4873 Q196.5938,718.4873 195.3906,717.8623 Q194.4063,717.3623 193.7188,716.2998 Q193.0313,715.2217 193.0313,713.9404 L193.0313,712.7842 Q193.0313,711.4561 193.6406,710.3154 Q194.2656,709.1592 195.3594,708.5498 Q196.4531,707.9248 197.6875,707.9248 Q198.4219,707.9248 199.0625,708.0967 Q199.7188,708.2529 200.2656,708.6123 Z " fill="#000000"/><text fill="#000000" font-family="Verdana" font-size="14" lengthAdjust="spacing" textLength="63.041" x="209.5" y="718.3052">CartItem</text></g><!--class ProductVariant--><g class="entity" data-qualified-name="ProductVariant" data-source-line="54" id="ent0011"><rect fill="#FFFFFF" height="28" rx="2.5" ry="2.5" style="stroke:#000000;stroke-width:1;" width="131.8857" x="164" y="786.7373"/><ellipse cx="177" cy="800.7373" fill="#FFFFFF" rx="9" ry="9" style="stroke:#000000;stroke-width:1;"/><path d="M179.7656,796.6123 Q179.9219,796.3936 180.1094,796.2842 Q180.2969,796.1748 180.5156,796.1748 Q180.8906,796.1748 181.125,796.4404 Q181.3594,796.6904 181.3594,797.2998 L181.3594,798.7529 Q181.3594,799.3623 181.125,799.6279 Q180.8906,799.8936 180.5156,799.8936 Q180.1719,799.8936 179.9688,799.6904 Q179.7656,799.5029 179.6563,798.9873 Q179.6094,798.6279 179.4219,798.4404 Q179.0938,798.0654 178.4844,797.8467 Q177.875,797.6279 177.25,797.6279 Q176.4844,797.6279 175.8438,797.9561 Q175.2188,798.2842 174.7188,799.0342 Q174.2344,799.7842 174.2344,800.8154 L174.2344,801.9092 Q174.2344,803.1436 175.125,803.9717 Q176.0156,804.7842 177.6094,804.7842 Q178.5469,804.7842 179.2031,804.5342 Q179.5938,804.3779 180.0156,803.9404 Q180.2813,803.6748 180.4219,803.5967 Q180.5781,803.5186 180.7813,803.5186 Q181.1094,803.5186 181.3594,803.7842 Q181.625,804.0342 181.625,804.3779 Q181.625,804.7217 181.2813,805.1279 Q180.7813,805.7061 179.9844,806.0342 Q178.9063,806.4873 177.6094,806.4873 Q176.0938,806.4873 174.8906,805.8623 Q173.9063,805.3623 173.2188,804.2998 Q172.5313,803.2217 172.5313,801.9404 L172.5313,800.7842 Q172.5313,799.4561 173.1406,798.3154 Q173.7656,797.1592 174.8594,796.5498 Q175.9531,795.9248 177.1875,795.9248 Q177.9219,795.9248 178.5625,796.0967 Q179.2188,796.2529 179.7656,796.6123 Z " fill="#000000"/><text fill="#000000" font-family="Verdana" font-size="14" lengthAdjust="spacing" textLength="103.8857" x="189" y="806.3052">ProductVariant</text></g><!--class Order--><g class="entity" data-qualified-name="Order" data-source-line="55" id="ent0012"><rect fill="#FFFFFF" height="28" rx="2.5" ry="2.5" style="stroke:#000000;stroke-width:1;" width="68.0313" x="1125" y="598.2373"/><ellipse cx="1138" cy="612.2373" fill="#FFFFFF" rx="9" ry="9" style="stroke:#000000;stroke-width:1;"/><path d="M1140.7656,608.1123 Q1140.9219,607.8936 1141.1094,607.7842 Q1141.2969,607.6748 1141.5156,607.6748 Q1141.8906,607.6748 1142.125,607.9404 Q1142.3594,608.1904 1142.3594,608.7998 L1142.3594,610.2529 Q1142.3594,610.8623 1142.125,611.1279 Q1141.8906,611.3936 1141.5156,611.3936 Q1141.1719,611.3936 1140.9688,611.1904 Q1140.7656,611.0029 1140.6563,610.4873 Q1140.6094,610.1279 1140.4219,609.9404 Q1140.0938,609.5654 1139.4844,609.3467 Q1138.875,609.1279 1138.25,609.1279 Q1137.4844,609.1279 1136.8438,609.4561 Q1136.2188,609.7842 1135.7188,610.5342 Q1135.2344,611.2842 1135.2344,612.3154 L1135.2344,613.4092 Q1135.2344,614.6436 1136.125,615.4717 Q1137.0156,616.2842 1138.6094,616.2842 Q1139.5469,616.2842 1140.2031,616.0342 Q1140.5938,615.8779 1141.0156,615.4404 Q1141.2813,615.1748 1141.4219,615.0967 Q1141.5781,615.0186 1141.7813,615.0186 Q1142.1094,615.0186 1142.3594,615.2842 Q1142.625,615.5342 1142.625,615.8779 Q1142.625,616.2217 1142.2813,616.6279 Q1141.7813,617.2061 1140.9844,617.5342 Q1139.9063,617.9873 1138.6094,617.9873 Q1137.0938,617.9873 1135.8906,617.3623 Q1134.9063,616.8623 1134.2188,615.7998 Q1133.5313,614.7217 1133.5313,613.4404 L1133.5313,612.2842 Q1133.5313,610.9561 1134.1406,609.8154 Q1134.7656,608.6592 1135.8594,608.0498 Q1136.9531,607.4248 1138.1875,607.4248 Q1138.9219,607.4248 1139.5625,607.5967 Q1140.2188,607.7529 1140.7656,608.1123 Z " fill="#000000"/><text fill="#000000" font-family="Verdana" font-size="14" lengthAdjust="spacing" textLength="40.0313" x="1150" y="617.8052">Order</text></g><!--class OrderItem--><g class="entity" data-qualified-name="OrderItem" data-source-line="56" id="ent0013"><rect fill="#FFFFFF" height="28" rx="2.5" ry="2.5" style="stroke:#000000;stroke-width:1;" width="101.3975" x="1108.5" y="698.7373"/><ellipse cx="1121.5" cy="712.7373" fill="#FFFFFF" rx="9" ry="9" style="stroke:#000000;stroke-width:1;"/><path d="M1124.2656,708.6123 Q1124.4219,708.3936 1124.6094,708.2842 Q1124.7969,708.1748 1125.0156,708.1748 Q1125.3906,708.1748 1125.625,708.4404 Q1125.8594,708.6904 1125.8594,709.2998 L1125.8594,710.7529 Q1125.8594,711.3623 1125.625,711.6279 Q1125.3906,711.8936 1125.0156,711.8936 Q1124.6719,711.8936 1124.4688,711.6904 Q1124.2656,711.5029 1124.1563,710.9873 Q1124.1094,710.6279 1123.9219,710.4404 Q1123.5938,710.0654 1122.9844,709.8467 Q1122.375,709.6279 1121.75,709.6279 Q1120.9844,709.6279 1120.3438,709.9561 Q1119.7188,710.2842 1119.2188,711.0342 Q1118.7344,711.7842 1118.7344,712.8154 L1118.7344,713.9092 Q1118.7344,715.1436 1119.625,715.9717 Q1120.5156,716.7842 1122.1094,716.7842 Q1123.0469,716.7842 1123.7031,716.5342 Q1124.0938,716.3779 1124.5156,715.9404 Q1124.7813,715.6748 1124.9219,715.5967 Q1125.0781,715.5186 1125.2813,715.5186 Q1125.6094,715.5186 1125.8594,715.7842 Q1126.125,716.0342 1126.125,716.3779 Q1126.125,716.7217 1125.7813,717.1279 Q1125.2813,717.7061 1124.4844,718.0342 Q1123.4063,718.4873 1122.1094,718.4873 Q1120.5938,718.4873 1119.3906,717.8623 Q1118.4063,717.3623 1117.7188,716.2998 Q1117.0313,715.2217 1117.0313,713.9404 L1117.0313,712.7842 Q1117.0313,711.4561 1117.6406,710.3154 Q1118.2656,709.1592 1119.3594,708.5498 Q1120.4531,707.9248 1121.6875,707.9248 Q1122.4219,707.9248 1123.0625,708.0967 Q1123.7188,708.2529 1124.2656,708.6123 Z " fill="#000000"/><text fill="#000000" font-family="Verdana" font-size="14" lengthAdjust="spacing" textLength="73.3975" x="1133.5" y="718.3052">OrderItem</text></g><!--class PaymentTransaction--><g class="entity" data-qualified-name="PaymentTransaction" data-source-line="57" id="ent0014"><rect fill="#FFFFFF" height="28" rx="2.5" ry="2.5" style="stroke:#000000;stroke-width:1;" width="171.0488" x="1282.5" y="698.7373"/><ellipse cx="1295.5" cy="712.7373" fill="#FFFFFF" rx="9" ry="9" style="stroke:#000000;stroke-width:1;"/><path d="M1298.2656,708.6123 Q1298.4219,708.3936 1298.6094,708.2842 Q1298.7969,708.1748 1299.0156,708.1748 Q1299.3906,708.1748 1299.625,708.4404 Q1299.8594,708.6904 1299.8594,709.2998 L1299.8594,710.7529 Q1299.8594,711.3623 1299.625,711.6279 Q1299.3906,711.8936 1299.0156,711.8936 Q1298.6719,711.8936 1298.4688,711.6904 Q1298.2656,711.5029 1298.1563,710.9873 Q1298.1094,710.6279 1297.9219,710.4404 Q1297.5938,710.0654 1296.9844,709.8467 Q1296.375,709.6279 1295.75,709.6279 Q1294.9844,709.6279 1294.3438,709.9561 Q1293.7188,710.2842 1293.2188,711.0342 Q1292.7344,711.7842 1292.7344,712.8154 L1292.7344,713.9092 Q1292.7344,715.1436 1293.625,715.9717 Q1294.5156,716.7842 1296.1094,716.7842 Q1297.0469,716.7842 1297.7031,716.5342 Q1298.0938,716.3779 1298.5156,715.9404 Q1298.7813,715.6748 1298.9219,715.5967 Q1299.0781,715.5186 1299.2813,715.5186 Q1299.6094,715.5186 1299.8594,715.7842 Q1300.125,716.0342 1300.125,716.3779 Q1300.125,716.7217 1299.7813,717.1279 Q1299.2813,717.7061 1298.4844,718.0342 Q1297.4063,718.4873 1296.1094,718.4873 Q1294.5938,718.4873 1293.3906,717.8623 Q1292.4063,717.3623 1291.7188,716.2998 Q1291.0313,715.2217 1291.0313,713.9404 L1291.0313,712.7842 Q1291.0313,711.4561 1291.6406,710.3154 Q1292.2656,709.1592 1293.3594,708.5498 Q1294.4531,707.9248 1295.6875,707.9248 Q1296.4219,707.9248 1297.0625,708.0967 Q1297.7188,708.2529 1298.2656,708.6123 Z " fill="#000000"/><text fill="#000000" font-family="Verdana" font-size="14" lengthAdjust="spacing" textLength="143.0488" x="1307.5" y="718.3052">PaymentTransaction</text></g><!--link CartServlet to CartService--><g class="link" data-entity-1="ent0001" data-entity-2="ent0003" data-link-type="dependency" data-source-line="59" id="lnk15"><path codeLine="59" d="M476,129.9173 C476,147.3273 476,163.9773 476,184.5273" fill="none" id="CartServlet-to-CartService" style="stroke:#000000;stroke-width:1;"/><polygon fill="#000000" points="476,189.5273,480,180.5273,476,184.5273,472,180.5273,476,189.5273" style="stroke:#000000;stroke-width:1;stroke-linejoin:miter;stroke-miterlimit:10;"/></g><!--link CheckoutServlet to CartService--><g class="link" data-entity-1="ent0002" data-entity-2="ent0003" data-link-type="dependency" data-source-line="60" id="lnk16"><path codeLine="60" d="M721.75,129.9473 C721.75,160.1173 721.75,198.7373 721.75,198.7373 C721.75,198.7373 719.65,198.7373 707.87,198.7373" fill="none" id="CheckoutServlet-to-CartService" style="stroke:#000000;stroke-width:1;"/><polygon fill="#000000" points="702.87,198.7373,711.87,202.7373,707.87,198.7373,711.87,194.7373,702.87,198.7373" style="stroke:#000000;stroke-width:1;stroke-linejoin:miter;stroke-miterlimit:10;"/></g><!--link CheckoutServlet to CheckoutService--><g class="link" data-entity-1="ent0002" data-entity-2="ent0004" data-link-type="dependency" data-source-line="61" id="lnk17"><path codeLine="61" d="M846.75,129.9173 C846.75,152.2273 846.75,176.4873 846.75,201.4773" fill="none" id="CheckoutServlet-to-CheckoutService" style="stroke:#000000;stroke-width:1;"/><polygon fill="#000000" points="846.75,206.4773,850.75,197.4773,846.75,201.4773,842.75,197.4773,846.75,206.4773" style="stroke:#000000;stroke-width:1;stroke-linejoin:miter;stroke-miterlimit:10;"/></g><!--link CartService to CartDAO--><g class="link" data-entity-1="ent0003" data-entity-2="ent0005" data-link-type="dependency" data-source-line="62" id="lnk18"><path codeLine="62" d="M348.75,327.9873 C348.75,347.2773 348.75,363.2373 348.75,382.5273" fill="none" id="CartService-to-CartDAO" style="stroke:#000000;stroke-width:1;"/><polygon fill="#000000" points="348.75,387.5273,352.75,378.5273,348.75,382.5273,344.75,378.5273,348.75,387.5273" style="stroke:#000000;stroke-width:1;stroke-linejoin:miter;stroke-miterlimit:10;"/></g><!--link CartService to ProductVariantDAO--><g class="link" data-entity-1="ent0003" data-entity-2="ent0006" data-link-type="dependency" data-source-line="63" id="lnk19"><path codeLine="63" d="M593,327.9873 C593,356.3173 593,383.2173 593,408.1873" fill="none" id="CartService-to-ProductVariantDAO" style="stroke:#000000;stroke-width:1;"/><polygon fill="#000000" points="593,413.1873,597,404.1873,593,408.1873,589,404.1873,593,413.1873" style="stroke:#000000;stroke-width:1;stroke-linejoin:miter;stroke-miterlimit:10;"/></g><!--link CheckoutService to CartDAO--><g class="link" data-entity-1="ent0004" data-entity-2="ent0005" data-link-type="dependency" data-source-line="64" id="lnk20"><path codeLine="64" d="M789.83,310.9273 C789.83,348.5573 789.83,392.7373 789.83,392.7373 C789.83,392.7373 610.24,392.7373 453.05,392.7373" fill="none" id="CheckoutService-to-CartDAO" style="stroke:#000000;stroke-width:1;"/><polygon fill="#000000" points="448.05,392.7373,457.05,396.7373,453.05,392.7373,457.05,388.7373,448.05,392.7373" style="stroke:#000000;stroke-width:1;stroke-linejoin:miter;stroke-miterlimit:10;"/></g><!--link CheckoutService to ProductVariantDAO--><g class="link" data-entity-1="ent0004" data-entity-2="ent0006" data-link-type="dependency" data-source-line="65" id="lnk21"><path codeLine="65" d="M842.17,310.7573 C842.17,342.6073 842.17,377.9073 842.17,408.0973" fill="none" id="CheckoutService-to-ProductVariantDAO" style="stroke:#000000;stroke-width:1;"/><polygon fill="#000000" points="842.17,413.0973,846.17,404.0973,842.17,408.0973,838.17,404.0973,842.17,413.0973" style="stroke:#000000;stroke-width:1;stroke-linejoin:miter;stroke-miterlimit:10;"/></g><!--link CheckoutService to OrderDAO--><g class="link" data-entity-1="ent0004" data-entity-2="ent0007" data-link-type="dependency" data-source-line="66" id="lnk22"><path codeLine="66" d="M998,310.7573 C998,336.8873 998,363.6873 998,390.9373" fill="none" id="CheckoutService-to-OrderDAO" style="stroke:#000000;stroke-width:1;"/><polygon fill="#000000" points="998,395.9373,1002,386.9373,998,390.9373,994,386.9373,998,395.9373" style="stroke:#000000;stroke-width:1;stroke-linejoin:miter;stroke-miterlimit:10;"/></g><!--link CheckoutService to PaymentDAO--><g class="link" data-entity-1="ent0004" data-entity-2="ent0008" data-link-type="dependency" data-source-line="67" id="lnk23"><path codeLine="67" d="M912,310.9273 C912,404.8573 912,592.7373 912,592.7373 C912,592.7373 1090.6,592.7373 1237.26,592.7373" fill="none" id="CheckoutService-to-PaymentDAO" style="stroke:#000000;stroke-width:1;"/><polygon fill="#000000" points="1242.26,592.7373,1233.26,588.7373,1237.26,592.7373,1233.26,596.7373,1242.26,592.7373" style="stroke:#000000;stroke-width:1;stroke-linejoin:miter;stroke-miterlimit:10;"/></g><!--link CartDAO to Cart--><g class="link" data-entity-1="ent0005" data-entity-2="ent0009" data-link-type="dependency" data-source-line="68" id="lnk24"><path codeLine="68" d="M230,525.8473 C230,552.9373 230,576.4473 230,592.9973" fill="none" id="CartDAO-to-Cart" style="stroke:#000000;stroke-width:1;"/><polygon fill="#000000" points="230,597.9973,234,588.9973,230,592.9973,226,588.9973,230,597.9973" style="stroke:#000000;stroke-width:1;stroke-linejoin:miter;stroke-miterlimit:10;"/></g><!--reverse link Cart to CartItem--><g class="link" data-entity-1="ent0009" data-entity-2="ent0010" data-link-type="composition" data-source-line="69" id="lnk25"><path codeLine="69" d="M230,638.6373 C230,657.8473 230,679.6573 230,698.6873" fill="none" id="Cart-backto-CartItem" style="stroke:#000000;stroke-width:1;"/><polygon fill="#000000" points="230,626.6373,226,632.6373,230,638.6373,234,632.6373,230,626.6373" style="stroke:#000000;stroke-width:1;stroke-linejoin:miter;stroke-miterlimit:10;"/><text fill="#000000" font-family="Verdana" font-size="13" lengthAdjust="spacing" textLength="8.2646" x="220.7264" y="647.3726">1</text><text fill="#000000" font-family="Verdana" font-size="13" lengthAdjust="spacing" textLength="25.9873" x="200.0389" y="688.0326">0..*</text></g><!--link CartItem to ProductVariant--><g class="link" data-entity-1="ent0010" data-entity-2="ent0011" data-link-type="dependency" data-source-line="70" id="lnk26"><path codeLine="70" d="M230,726.8773 C230,743.2973 230,765.2273 230,781.6373" fill="none" id="CartItem-to-ProductVariant" style="stroke:#000000;stroke-width:1;"/><polygon fill="#000000" points="230,786.6373,234,777.6373,230,781.6373,226,777.6373,230,786.6373" style="stroke:#000000;stroke-width:1;stroke-linejoin:miter;stroke-miterlimit:10;"/></g><!--link OrderDAO to Order--><g class="link" data-entity-1="ent0007" data-entity-2="ent0012" data-link-type="dependency" data-source-line="71" id="lnk27"><path codeLine="71" d="M1159,517.3073 C1159,546.8073 1159,574.7873 1159,593.0773" fill="none" id="OrderDAO-to-Order" style="stroke:#000000;stroke-width:1;"/><polygon fill="#000000" points="1159,598.0773,1163,589.0773,1159,593.0773,1155,589.0773,1159,598.0773" style="stroke:#000000;stroke-width:1;stroke-linejoin:miter;stroke-miterlimit:10;"/></g><!--reverse link Order to OrderItem--><g class="link" data-entity-1="ent0012" data-entity-2="ent0013" data-link-type="composition" data-source-line="72" id="lnk28"><path codeLine="72" d="M1159,638.6373 C1159,657.8473 1159,679.6573 1159,698.6873" fill="none" id="Order-backto-OrderItem" style="stroke:#000000;stroke-width:1;"/><polygon fill="#000000" points="1159,626.6373,1155,632.6373,1159,638.6373,1163,632.6373,1159,626.6373" style="stroke:#000000;stroke-width:1;stroke-linejoin:miter;stroke-miterlimit:10;"/><text fill="#000000" font-family="Verdana" font-size="13" lengthAdjust="spacing" textLength="8.2646" x="1149.6651" y="647.3726">1</text><text fill="#000000" font-family="Verdana" font-size="13" lengthAdjust="spacing" textLength="25.9873" x="1128.9654" y="688.0326">1..*</text></g><!--link PaymentDAO to PaymentTransaction--><g class="link" data-entity-1="ent0008" data-entity-2="ent0014" data-link-type="dependency" data-source-line="73" id="lnk29"><path codeLine="73" d="M1368,638.9073 C1368,658.0973 1368,678.2173 1368,693.6573" fill="none" id="PaymentDAO-to-PaymentTransaction" style="stroke:#000000;stroke-width:1;"/><polygon fill="#000000" points="1368,698.6573,1372,689.6573,1368,693.6573,1364,689.6573,1368,698.6573" style="stroke:#000000;stroke-width:1;stroke-linejoin:miter;stroke-miterlimit:10;"/></g><!--link Order to PaymentTransaction--><g class="link" data-entity-1="ent0012" data-entity-2="ent0014" data-link-type="dependency" data-source-line="74" id="lnk30"><path codeLine="74" d="M1193.29,612.7373 C1209.77,612.7373 1226,612.7373 1226,612.7373 C1226,612.7373 1226,712.7373 1226,712.7373 C1226,712.7373 1247.22,712.7373 1277.12,712.7373" fill="none" id="Order-to-PaymentTransaction" style="stroke:#000000;stroke-width:1;"/><polygon fill="#000000" points="1282.12,712.7373,1273.12,708.7373,1277.12,712.7373,1273.12,716.7373,1282.12,712.7373" style="stroke:#000000;stroke-width:1;stroke-linejoin:miter;stroke-miterlimit:10;"/><text fill="#000000" font-family="Verdana" font-size="13" lengthAdjust="spacing" textLength="8.2646" x="1201.2114" y="609.4458">1</text><text fill="#000000" font-family="Verdana" font-size="13" lengthAdjust="spacing" textLength="25.9873" x="1248.3998" y="710.1748">0..*</text></g><?plantuml-src jLNBRjim4BphArZtegQsaLoBm42Y0As054xgj7TQtDX4A58XLmBSelzUFlIWBBlDfISHozdXxkoGGeu2I4Or4YePoVPGlAWQIIQeCUIEqvscPV8Ezr02gGJbCZ4lN5RKXadXG3U8cczhXBnGSiD_0hcC889Bm4C5H6dSgsJF6H0eApoG4iejQ9CadiMNi07T243oAo7aFM7gCs2guRK6WtEYmLHA6lZmYJIAinRoeCnVCByxyhQj_tT0Mpqlm9D_99In9-N2QL4RL2NedCr9GpMd4jtojROBZeUvWogPCylv3KmjqEVN5QC8ZoreH59OrXoXZ5d6oHfArO33d4aSmtU0MRjbeWGBkkS6hxkzrJ4uKxN4SGANWVAP2mHzUzY0W0AvaYbtx7DYV01OpioK_zIy1aaRAhWJ9NrMkhJ9NsbrlR7caxjv-8G2YpQvWtLaVSCBKgYo0caSbz8iYCEWq40Di0sgucKmmO9iQoxOe_wkHKfBrx9LKaa4YHOLJXuPuUvctLPijLhhpD8Y-2RPER4a2_ktXwm7ZB7hogb8nNLkJzw1NhKkCQ3xUQH-mF-sMTlPr6IHiJggo61RfGHGwJEP7MFRL7_mAFC8xreytzmP6pnenUe2VuHk1ba3cINf-um56cUjsdB3SFriy-URXd91jmBI4qeTLSvbb7e6FteBrivHGx5SkX45dqKp3s6FzGhsFkoad61psLZBANsuLxjqkLp6Wmo83LAipHShfaKDZCQ7BVEUoXrOvUP4AeIf4KB-SMAaHpyOUYWXdaWu_m4aivTX8EYkowlE50DxWTgcujiIBLtR9qSVAnkluuHGqfEczbxx5oT9ud_AOh6AN-da-9VmfltnivJ4htwNRpMPn2S-JeuVk57sYRstCNJEEqtHpopf7gdkL1yWiwiPkLWioEnokRoO3GFf5YSAINglzyU7q41svSc6QKNMYQgAnpOGE41RpHJt1m00?></g></svg>